<?xml version="1.0" ?><svg height="48" id="Layer_1" version="1.1" viewBox="0 0 512 512" width="512" xml:space="preserve" xmlns="http://www.w3.org/2000/svg" xmlns:cc="http://creativecommons.org/ns#" xmlns:dc="http://purl.org/dc/elements/1.1/" xmlns:rdf="http://www.w3.org/1999/02/22-rdf-syntax-ns#" xmlns:svg="http://www.w3.org/2000/svg"><defs id="defs7"/><path d="M 256.01563,16 C 154.26391,16 71.73272,98.46742 71.73272,200.18915 c 1.49102,123.10807 113.46924,190.80092 180.59537,293.25264 2.40514,3.48603 5.09878,3.33503 7.34382,0 C 326.55403,390.83207 438.77516,323.29722 440.26728,200.18915 440.26728,98.46742 357.76625,16 256.01563,16 z m -0.23438,39.26598 c 4.4428,0 10.25877,7.43138 8.10945,20.0783 -1.00913,5.89753 -2.83815,11.80279 -4.51567,16.54703 34.06151,1.14018 63.77391,19.46553 80.71948,46.59416 3.2764,-3.82684 7.47816,-8.35825 12.07823,-12.17198 5.25535,-4.33796 10.27964,-6.12152 14.172,-6.26568 3.43368,-0.11795 5.99597,1.05082 7.03131,2.8594 2.22795,3.85305 -1.31039,12.59112 -13.32824,17.04703 -5.59611,2.08379 -11.62183,3.44201 -16.56265,4.35941 7.41778,13.90506 11.60948,29.76907 11.60948,46.60979 0,16.85383 -4.1917,32.71532 -11.60948,46.59417 4.94082,0.9305 10.95092,2.30688 16.54702,4.39067 12.01786,4.45591 15.77496,12.80335 13.547,16.6564 -2.21485,3.83995 -11.54043,5.14663 -21.42207,-3.03128 -4.60007,-3.81373 -8.80183,-8.34262 -12.07823,-12.15636 -16.94557,27.11553 -46.65797,45.43584 -80.71947,46.56292 1.67752,4.74424 3.50401,10.66512 4.50004,16.56265 2.14931,12.64693 -3.21352,20.06268 -7.65632,20.06268 -4.44281,0 -10.22753,-7.41575 -8.0782,-20.06268 0.99602,-5.89753 2.82252,-11.81841 4.50004,-16.56265 -34.07461,-1.14019 -63.7608,-19.46554 -80.71948,-46.59417 -3.26329,3.82684 -7.47816,8.35825 -12.07823,12.17198 -9.86853,8.17791 -18.97536,7.26186 -21.20331,3.42191 -2.21485,-3.85305 1.31291,-12.59364 13.34387,-17.06265 5.5961,-2.07069 11.62182,-3.42892 16.56264,-4.35942 -7.41778,-13.87885 -11.64073,-29.74034 -11.64073,-46.59417 0,-16.84072 4.22547,-32.71784 11.65636,-46.60979 -4.95393,-0.9305 -10.96655,-2.30687 -16.56265,-4.39066 -12.03096,-4.45592 -15.77747,-12.80335 -13.56262,-16.6564 1.04845,-1.79547 3.63897,-3.04186 7.12506,-3.01566 3.9579,0.0393 9.05476,1.7115 14.29701,6.06256 4.60007,3.80063 8.79931,8.34262 12.0626,12.15636 16.95868,-27.11553 46.66049,-45.43836 80.7351,-46.57854 -1.67752,-4.74424 -3.50401,-10.6495 -4.50004,-16.54703 -2.14931,-12.64692 3.19789,-20.0783 7.6407,-20.0783 z m -5.4063,55.35987 c -25.32006,1.76925 -47.40549,15.26022 -60.89117,35.06281 5.53057,1.37609 11.61624,3.13651 17.42203,5.39068 11.8999,4.65249 18.19514,11.58753 19.85955,17.00015 l 0.59376,-1.01563 5.73442,2.40627 c 4.24622,-4.53455 9.80068,-7.79839 16.07827,-9.18759 l 0.78126,-6.14068 1.15626,0 c -3.86616,-4.14137 -6.69219,-13.06701 -4.76567,-25.68773 0.94361,-6.17275 2.44551,-12.32392 4.03129,-17.82828 z m 11.57823,0.0469 c 1.57267,5.49126 3.06953,11.63488 4.00003,17.78141 1.92653,12.63382 -0.8995,21.56199 -4.76566,25.70336 l 1.17188,0 0.78126,6.17193 c 6.26449,1.44162 11.79324,4.73872 16.00014,9.31258 l 5.68755,-2.37502 0.57813,1.01564 c 1.65131,-5.42573 7.97528,-12.33203 19.87518,-16.98453 5.80579,-2.26727 11.8965,-4.03273 17.45328,-5.42193 -13.43326,-19.8419 -35.48794,-33.36865 -60.78179,-35.20344 z m -78.28195,45.00041 c -5.18983,10.64176 -8.10945,22.6165 -8.10945,35.25031 0,12.64693 2.91962,24.59294 8.10945,35.2347 3.971,-4.11517 8.5467,-8.48527 13.42199,-12.39074 9.97338,-7.98133 19.12338,-9.99007 24.64085,-8.71883 l -0.59376,-1.03126 4.89067,-3.70316 c -0.91739,-2.97497 -1.40626,-6.1143 -1.40626,-9.39071 0,-3.26329 0.48887,-6.42883 1.40626,-9.3907 l -4.89067,-3.71879 0.59376,-1.01563 c -5.51747,1.27124 -14.66747,-0.73751 -24.64085,-8.71883 -4.87529,-3.90548 -9.45099,-8.27809 -13.42199,-12.40636 z m 144.82942,0.21875 c -3.971,4.11516 -8.54419,8.48527 -13.40637,12.39074 -9.97337,7.98132 -19.1259,10.00569 -24.65647,8.73445 l 0.59375,0.98438 -4.93754,3.78129 c 0.87807,2.89634 1.35939,5.96915 1.35939,9.1407 0,3.18467 -0.48132,6.24437 -1.35939,9.14071 l 4.93754,3.78129 -0.59375,0.98438 c 5.53057,-1.27125 14.6831,0.75313 24.65647,8.73445 4.86218,3.89237 9.43537,8.27557 13.40637,12.39074 5.1243,-10.58935 8.00007,-22.47638 8.00007,-35.03157 0,-12.55518 -2.87577,-24.44222 -8.00007,-35.03156 z m -72.4694,18.48454 c -9.13461,0 -16.51577,7.42551 -16.51577,16.54702 0,9.13462 7.38116,16.5314 16.51577,16.5314 9.13462,0 16.54702,-7.39678 16.54702,-16.5314 0,-9.12151 -7.4124,-16.54702 -16.54702,-16.54702 z m 23.10958,37.82847 c -4.2069,4.56075 -9.73565,7.85786 -16.00014,9.31258 l -0.78126,6.17193 -1.17188,0 c 3.86616,4.14137 6.69219,13.06702 4.76566,25.68773 -0.9305,6.15965 -2.42736,12.30578 -4.00003,17.79704 25.29385,-1.83479 47.34853,-15.36406 60.78179,-35.21907 -5.55678,-1.37609 -11.64749,-3.13903 -17.45328,-5.4063 -11.8999,-4.6525 -18.22387,-11.57191 -19.87518,-16.98453 l -0.57813,1.01564 -5.68755,-2.37502 z m -46.04729,0.17187 -5.73442,2.40627 -0.59376,-1.01563 c -1.66441,5.41262 -7.95965,12.34514 -19.85955,16.98453 -5.80579,2.26727 -11.89146,4.0302 -17.42203,5.4063 13.48568,19.80259 35.57111,33.27541 60.89117,35.03156 -1.58578,-5.49125 -3.08768,-11.63991 -4.03129,-17.81266 -1.92652,-12.62071 0.89951,-21.54636 4.76567,-25.68773 l -1.15626,0 -0.78126,-6.12506 c -6.27759,-1.38919 -11.83205,-4.65304 -16.07827,-9.18758 z" id="path4034" style="font-size:medium;font-style:normal;font-variant:normal;font-weight:normal;font-stretch:normal;text-indent:0;text-align:start;text-decoration:none;line-height:normal;letter-spacing:normal;word-spacing:normal;text-transform:none;direction:ltr;block-progression:tb;writing-mode:lr-tb;text-anchor:start;baseline-shift:baseline;color:#000000;fill:darkred;fill-opacity:1;fill-rule:nonzero;stroke:none;stroke-width:8;marker:none;visibility:visible;display:inline;overflow:visible;enable-background:accumulate;font-family:Sans;-inkscape-font-specification:Sans"/></svg>
